<svg id="Capa_1" data-name="Capa 1" xmlns="http://www.w3.org/2000/svg" viewBox="0 0 32 32"><defs><style>.cls-1{fill:#23272f;}.cls-2{fill:#fdfbfc;stroke:#23282d;stroke-miterlimit:10;opacity:0.87;}</style></defs><title>icon</title><rect class="cls-1" width="32" height="32" rx="4.81" ry="4.81"/><path class="cls-2" d="M7.33,1H18.52q5.14,0,8.42,6.35a13.15,13.15,0,0,1,.55,3.59,9.78,9.78,0,0,1-1.38,5,10.4,10.4,0,0,1,1.38,5.25q0,6.32-6.91,9.39l-2.07.28H7.33V26.69H17.69q4.14,0,5.52-4.7V20.61a5.17,5.17,0,0,0-2.9-4.56q2.9-2.14,2.9-4.7v-1q0-3.21-3.73-5a4.59,4.59,0,0,0-1.8-.28H7.33Zm0,5.11H17.69q3.49,0,4.56,4v1.24q0,2.38-3,3.87a3.44,3.44,0,0,1-1.52.28H7.33V6.11Zm0,10.36h11q2.45,0,3.87,3.73v1.1q0,3.11-3.59,4.42H7.33V16.47Zm4.28-6.22v1H17q1,0,1.1-.41v-.14q-.07-.41-1.1-.41Zm0,10.36v1H17c.69,0,1.06-.14,1.1-.41V21q-.07-.41-1.1-.41Z"/></svg>